<?xml version="1.0" encoding="UTF-8"?><svg id="Capa_1" data-name="Capa 1" xmlns="http://www.w3.org/2000/svg" xmlns:xlink="http://www.w3.org/1999/xlink" viewBox="0 0 1701.8 269.51"><defs><style>.cls-1{fill:url(#Krivia_Correcto);}.cls-2{fill:url(#Degradado_sin_nombre_24);}.cls-3{fill:url(#Degradado_sin_nombre_24-2);}.cls-4{fill:url(#Degradado_sin_nombre_24-3);}.cls-5{fill:url(#Degradado_sin_nombre_24-4);}.cls-6{fill:url(#Degradado_sin_nombre_24-5);}</style><linearGradient id="Krivia_Correcto" x1="220.9" y1="575.68" x2="220.9" y2="306.77" gradientUnits="userSpaceOnUse"><stop offset="0" stop-color="#22dcfd"/><stop offset="0.5" stop-color="#1c91e2"/><stop offset="1" stop-color="#2c80d5"/></linearGradient><linearGradient id="Degradado_sin_nombre_24" x1="572.83" y1="575.85" x2="572.83" y2="307" xlink:href="#Krivia_Correcto"/><linearGradient id="Degradado_sin_nombre_24-2" x1="832.25" y1="575.7" x2="832.25" y2="306.99" xlink:href="#Krivia_Correcto"/><linearGradient id="Degradado_sin_nombre_24-3" x1="1106.04" y1="575.7" x2="1106.04" y2="306.98" xlink:href="#Krivia_Correcto"/><linearGradient id="Degradado_sin_nombre_24-4" x1="1379.75" y1="575.73" x2="1379.75" y2="306.99" xlink:href="#Krivia_Correcto"/><linearGradient id="Degradado_sin_nombre_24-5" x1="1653.09" y1="576.28" x2="1653.09" y2="306.88" xlink:href="#Krivia_Correcto"/></defs><path class="cls-1" d="M108.45,307c6.7,0,13.4,0,20.1,0,0,54.43-.1,108.85,0,163.3,21.1-17.9,40.42-37.77,60.75-56.52,37.1-35.3,74.45-70.35,111.47-105.7,8.9-2.55,18.9-.48,28.23-1.05-38.18,37.77-77.85,74-116.5,111.27C252.65,470.8,293.25,523,333.35,575.55c-8.57.18-17.17.15-25.75,0-36.35-47.93-73.77-95-110.25-142.9-22.82,21.8-45.85,43.4-68.6,65.3-.77,25.9-.07,51.85-.32,77.75H108.58Q108.54,441.36,108.45,307Z" transform="translate(-108.45 -306.77)"/><path class="cls-2" d="M463.45,307c36.28.05,72.55-.07,108.83.05,14.05,1,28.47.73,42,5.28,19.08,6,36.43,18.6,46.5,36.07,14.43,23.73,15.9,54.33,5.45,79.88-9.07,23.72-30.27,41.1-54.1,48.77,23.15,33.1,46.8,65.83,70.1,98.8-8.27-.2-16.57-.2-24.85-.2-22.67-31.7-44.67-63.87-68-95.07-35.3.35-70.6,0-105.9.17q0,47.44,0,94.93H463.58q0-56.85-.05-113.68c35.35.08,70.72-.05,106.07.08,29.18,2.17,62.45-8.38,76.18-36.2,10.15-21.05,10-47.43-2.55-67.45-12.18-19.93-35.68-31.3-58.68-31.4-40.35-.08-80.72,0-121.07,0C463.45,320.33,463.45,313.68,463.45,307Z" transform="translate(-108.45 -306.77)"/><path class="cls-3" d="M822.23,307c6.67,0,13.35,0,20,0q0,134.37-.15,268.7-9.9,0-19.75,0Q822.23,441.35,822.23,307Z" transform="translate(-108.45 -306.77)"/><path class="cls-4" d="M971.73,307h22.55c37.92,82,73.87,165,112.15,246.8,37-82.35,74.57-164.42,111.5-246.8,7.45,0,15,0,22.42,0-40.67,89.75-82.37,179-123.12,268.72-7.33,0-14.68-.05-22-.12C1054.48,485.88,1012.78,396.58,971.73,307Z" transform="translate(-108.45 -306.77)"/><path class="cls-5" d="M1369.75,307q10,0,20,0,.07,134.36,0,268.7-10,0-19.92,0Q1369.74,441.35,1369.75,307Z" transform="translate(-108.45 -306.77)"/><path class="cls-6" d="M1639.65,314.33c5.85-8.15,18.5-10.13,26.15-3.38,7.38,4.73,5,15.65,12.4,20.38,26.48,23.17,52.23,47.15,79,69.92,5.45-1.3,11.82-2.67,16.22,1.93,7.68,5.77,6.13,18.52-2.55,22.45-5,3.27-10.57.12-15.77-.53-8.18,3.3-15.05,9-22.53,13.6,18.33,29.25,35.53,59.25,53.28,88.88,10.32,1.95,20.35,8.47,23.42,19,4.2,13.15-6.1,28.12-19.67,29.52-11.43,1.5-22.75-6.67-26.33-17.32-2.07-5.63.25-11.43,1.68-16.88-23.83-22-46.5-45.2-70.1-67.4-6.68,3-13.6,2.93-19.83-1-42,25.17-84.25,49.8-126.12,75.1.42,14.45-12,28.32-26.78,27.6-13.4.32-24.4-11.55-26.22-24.18-.08-11.6,7.85-23.67,19.47-26.47,3.45-1.5,8.45-.95,10.3-4.9q56.22-92.82,111.58-186.1C1636.48,327.8,1634.45,319.85,1639.65,314.33Zm30,20.8c20.63,31.9,39.63,64.85,59.55,97.22,7.7-3.65,15.28-7.62,22.6-12a22.42,22.42,0,0,1,1.7-15.92C1726.35,380.43,1697.25,358.7,1669.7,335.13ZM1546.6,518.68c29.78-27.6,57.81-57.16,87.78-84.65-1.83-7.4.72-14.25,7.35-18.13,2.9-25.37,3.9-51,4.45-76.5C1612.25,398.73,1579.78,458.9,1546.6,518.68Zm108.55-169.3c-1.92,20.1-5.27,40.05-6.55,60.2-.67,5.3,2.2,9.85,5.23,13.9,0,2.87.05,5.75.07,8.65,7.3,6.17,14.63,12.3,22.28,18.07a23,23,0,0,1,18.92.35c7.3-4.05,14.68-8,22.18-11.65-18.9-32.4-36.35-65.62-55.25-98C1659.2,343.25,1655,345.05,1655.15,349.38ZM1549,530.08c40.6-21.55,80.35-44.68,121.18-65.8q1-4.95,2.25-9.9c-7-6.33-14-12.55-21.45-18.28a28.48,28.48,0,0,1-13.08,0C1609,468.1,1578.53,498.65,1549,530.08ZM1700.53,458q-.94,5.52-1.85,11.1c23.45,19.53,45.42,40.75,68.72,60.5-16.47-27.42-30.05-56.52-47.27-83.42C1713.63,450.18,1707.15,454.2,1700.53,458Z" transform="translate(-108.45 -306.77)"/></svg>